# MagicaVoxel @ Ephtracy

# material
mtllib ceiling.mtl
usemtl palette

# normals
vn -1 0 0
vn 1 0 0
vn 0 0 1
vn 0 0 -1
vn 0 -1 0
vn 0 1 0

# texcoords
vt 0.00195313 0.5
vt 0.00585938 0.5

# verts
v -25 0 25
v -25 0 -25
v -25 4 25
v -25 4 -25
v 25 0 25
v 25 0 -25
v 25 4 25
v 25 4 -25
v -25 0 25
v -25 4 25
v 25 0 25
v 25 4 25
v -25 0 -25
v -25 4 -25
v 25 0 -25
v 25 4 -25
v -25 0 25
v 25 0 25
v -24 0 24
v 24 0 24
v -24 0 -24
v 24 0 -24
v -25 0 -25
v 25 0 -25
v -25 4 25
v 25 4 25
v -21 4 24
v 21 4 24
v -22 4 23
v -21 4 23
v 21 4 23
v 22 4 23
v -23 4 22
v -22 4 22
v 22 4 22
v 23 4 22
v -24 4 21
v -23 4 21
v 23 4 21
v 24 4 21
v -24 4 -21
v -23 4 -21
v 23 4 -21
v 24 4 -21
v -23 4 -22
v -22 4 -22
v 22 4 -22
v 23 4 -22
v -22 4 -23
v -21 4 -23
v 21 4 -23
v 22 4 -23
v -21 4 -24
v 21 4 -24
v -25 4 -25
v 25 4 -25

# faces
f 3/1/1 2/1/1 1/1/1
f 4/1/1 2/1/1 3/1/1
f 5/1/2 6/1/2 7/1/2
f 7/1/2 6/1/2 8/1/2
f 11/1/3 10/1/3 9/1/3
f 12/1/3 10/1/3 11/1/3
f 13/1/4 14/1/4 15/1/4
f 15/1/4 14/1/4 16/1/4
f 19/1/5 18/1/5 17/1/5
f 20/1/5 18/1/5 19/1/5
f 21/1/5 19/1/5 17/1/5
f 21/2/5 20/2/5 19/2/5
f 22/1/5 18/1/5 20/1/5
f 22/2/5 20/2/5 21/2/5
f 23/1/5 21/1/5 17/1/5
f 23/1/5 22/1/5 21/1/5
f 24/1/5 18/1/5 22/1/5
f 24/1/5 22/1/5 23/1/5
f 25/1/6 26/1/6 27/1/6
f 27/1/6 26/1/6 28/1/6
f 25/1/6 27/1/6 29/1/6
f 27/2/6 28/2/6 30/2/6
f 29/1/6 27/1/6 30/1/6
f 28/1/6 26/1/6 31/1/6
f 30/2/6 28/2/6 31/2/6
f 31/1/6 26/1/6 32/1/6
f 25/1/6 29/1/6 33/1/6
f 29/2/6 30/2/6 34/2/6
f 33/1/6 29/1/6 34/1/6
f 30/2/6 31/2/6 34/2/6
f 31/2/6 32/2/6 34/2/6
f 32/1/6 26/1/6 35/1/6
f 34/2/6 32/2/6 35/2/6
f 35/1/6 26/1/6 36/1/6
f 25/1/6 33/1/6 37/1/6
f 33/2/6 34/2/6 38/2/6
f 37/1/6 33/1/6 38/1/6
f 34/2/6 35/2/6 38/2/6
f 35/2/6 36/2/6 38/2/6
f 36/1/6 26/1/6 39/1/6
f 38/2/6 36/2/6 39/2/6
f 39/1/6 26/1/6 40/1/6
f 37/2/6 38/2/6 41/2/6
f 25/1/6 37/1/6 41/1/6
f 39/2/6 40/2/6 41/2/6
f 38/2/6 39/2/6 41/2/6
f 41/2/6 40/2/6 42/2/6
f 42/2/6 40/2/6 43/2/6
f 40/1/6 26/1/6 44/1/6
f 43/2/6 40/2/6 44/2/6
f 42/2/6 43/2/6 45/2/6
f 41/1/6 42/1/6 45/1/6
f 45/2/6 43/2/6 46/2/6
f 46/2/6 43/2/6 47/2/6
f 43/1/6 44/1/6 48/1/6
f 47/2/6 43/2/6 48/2/6
f 46/2/6 47/2/6 49/2/6
f 45/1/6 46/1/6 49/1/6
f 49/2/6 47/2/6 50/2/6
f 50/2/6 47/2/6 51/2/6
f 47/1/6 48/1/6 52/1/6
f 51/2/6 47/2/6 52/2/6
f 50/2/6 51/2/6 53/2/6
f 49/1/6 50/1/6 53/1/6
f 51/1/6 52/1/6 54/1/6
f 53/2/6 51/2/6 54/2/6
f 25/1/6 41/1/6 55/1/6
f 41/1/6 45/1/6 55/1/6
f 53/1/6 54/1/6 55/1/6
f 49/1/6 53/1/6 55/1/6
f 45/1/6 49/1/6 55/1/6
f 44/1/6 26/1/6 56/1/6
f 55/1/6 54/1/6 56/1/6
f 54/1/6 52/1/6 56/1/6
f 52/1/6 48/1/6 56/1/6
f 48/1/6 44/1/6 56/1/6
