# MagicaVoxel @ Ephtracy

# material
mtllib notebook.mtl
usemtl palette

# normals
vn -1 0 0
vn 1 0 0
vn 0 0 1
vn 0 0 -1
vn 0 -1 0
vn 0 1 0

# texcoords
vt 0.00976563 0.5
vt 0.0136719 0.5
vt 0.0175781 0.5
vt 0.0214844 0.5

# verts
v -2 0 2.5
v -2 0 1.5
v -2 0 0.5
v -2 0 -0.5
v -2 0 -1.5
v -2 0 -2.5
v -2 1 2.5
v -2 1 1.5
v -2 1 0.5
v -2 1 -0.5
v -2 1 -1.5
v -2 1 -2.5
v 0 1 1.5
v 0 1 0.5
v 0 1 -1.5
v 0 2 1.5
v 0 2 0.5
v 0 2 -1.5
v 1 1 1.5
v 1 1 0.5
v 1 1 -1.5
v 1 2 1.5
v 1 2 0.5
v 1 2 -1.5
v 2 0 2.5
v 2 0 -2.5
v 2 1 2.5
v 2 1 -2.5
v -2 0 2.5
v -2 1 2.5
v -1 0 2.5
v -1 1 2.5
v 2 0 2.5
v 2 1 2.5
v 0 1 1.5
v 0 2 1.5
v 1 1 1.5
v 1 2 1.5
v 0 1 -1.5
v 0 2 -1.5
v 1 1 -1.5
v 1 2 -1.5
v -2 0 -2.5
v -2 1 -2.5
v -1 0 -2.5
v -1 1 -2.5
v 2 0 -2.5
v 2 1 -2.5
v -2 0 2.5
v -1 0 2.5
v 2 0 2.5
v -2 0 1.5
v -1 0 1.5
v -2 0 0.5
v -1 0 0.5
v -2 0 -0.5
v -1 0 -0.5
v -2 0 -1.5
v -1 0 -1.5
v -2 0 -2.5
v -1 0 -2.5
v 2 0 -2.5
v -2 1 2.5
v -1 1 2.5
v 2 1 2.5
v -2 1 1.5
v -1 1 1.5
v 0 1 1.5
v 1 1 1.5
v -2 1 0.5
v -1 1 0.5
v 0 1 0.5
v 1 1 0.5
v -2 1 -0.5
v -1 1 -0.5
v -2 1 -1.5
v -1 1 -1.5
v 0 1 -1.5
v 1 1 -1.5
v -2 1 -2.5
v -1 1 -2.5
v 2 1 -2.5
v 0 2 1.5
v 1 2 1.5
v 0 2 0.5
v 1 2 0.5
v 0 2 -1.5
v 1 2 -1.5

# faces
f 7/4/1 2/4/1 1/4/1
f 8/3/1 3/3/1 2/3/1
f 8/4/1 2/4/1 7/4/1
f 9/4/1 4/4/1 3/4/1
f 9/3/1 3/3/1 8/3/1
f 10/3/1 5/3/1 4/3/1
f 10/4/1 4/4/1 9/4/1
f 11/4/1 6/4/1 5/4/1
f 11/3/1 5/3/1 10/3/1
f 12/4/1 6/4/1 11/4/1
f 16/2/1 14/2/1 13/2/1
f 17/1/1 15/1/1 14/1/1
f 17/2/1 14/2/1 16/2/1
f 18/1/1 15/1/1 17/1/1
f 19/2/2 20/2/2 22/2/2
f 20/1/2 21/1/2 23/1/2
f 22/2/2 20/2/2 23/2/2
f 23/1/2 21/1/2 24/1/2
f 25/3/2 26/3/2 27/3/2
f 27/3/2 26/3/2 28/3/2
f 31/4/3 30/4/3 29/4/3
f 32/4/3 30/4/3 31/4/3
f 33/3/3 32/3/3 31/3/3
f 34/3/3 32/3/3 33/3/3
f 37/2/3 36/2/3 35/2/3
f 38/2/3 36/2/3 37/2/3
f 39/1/4 40/1/4 41/1/4
f 41/1/4 40/1/4 42/1/4
f 43/4/4 44/4/4 45/4/4
f 45/4/4 44/4/4 46/4/4
f 45/3/4 46/3/4 47/3/4
f 47/3/4 46/3/4 48/3/4
f 52/4/5 50/4/5 49/4/5
f 53/3/5 51/3/5 50/3/5
f 53/4/5 50/4/5 52/4/5
f 54/3/5 53/3/5 52/3/5
f 55/3/5 51/3/5 53/3/5
f 55/3/5 53/3/5 54/3/5
f 56/4/5 55/4/5 54/4/5
f 57/3/5 51/3/5 55/3/5
f 57/4/5 55/4/5 56/4/5
f 58/3/5 57/3/5 56/3/5
f 59/3/5 51/3/5 57/3/5
f 59/3/5 57/3/5 58/3/5
f 60/4/5 59/4/5 58/4/5
f 61/3/5 51/3/5 59/3/5
f 61/4/5 59/4/5 60/4/5
f 62/3/5 51/3/5 61/3/5
f 63/4/6 64/4/6 66/4/6
f 64/3/6 65/3/6 67/3/6
f 66/4/6 64/4/6 67/4/6
f 67/3/6 65/3/6 68/3/6
f 68/3/6 65/3/6 69/3/6
f 66/3/6 67/3/6 70/3/6
f 67/3/6 68/3/6 70/3/6
f 70/3/6 68/3/6 71/3/6
f 71/3/6 68/3/6 72/3/6
f 69/3/6 65/3/6 73/3/6
f 70/4/6 71/4/6 74/4/6
f 71/3/6 72/3/6 75/3/6
f 74/4/6 71/4/6 75/4/6
f 74/3/6 75/3/6 76/3/6
f 75/3/6 72/3/6 77/3/6
f 76/3/6 75/3/6 77/3/6
f 77/3/6 72/3/6 78/3/6
f 73/3/6 65/3/6 79/3/6
f 76/4/6 77/4/6 80/4/6
f 77/3/6 78/3/6 81/3/6
f 80/4/6 77/4/6 81/4/6
f 78/3/6 79/3/6 81/3/6
f 79/3/6 65/3/6 82/3/6
f 81/3/6 79/3/6 82/3/6
f 83/2/6 84/2/6 85/2/6
f 85/2/6 84/2/6 86/2/6
f 85/1/6 86/1/6 87/1/6
f 87/1/6 86/1/6 88/1/6
