# MagicaVoxel @ Ephtracy

# material
mtllib pills.mtl
usemtl palette

# normals
vn -1 0 0
vn 1 0 0
vn 0 0 1
vn 0 0 -1
vn 0 -1 0
vn 0 1 0

# texcoords
vt 0.0488281 0.5
vt 0.0527344 0.5
vt 0.0722656 0.5
vt 0.0996094 0.5

# verts
v -3.5 1 0.5
v -3.5 1 -1.5
v -3.5 2 2.5
v -3.5 2 0.5
v -3.5 2 -1.5
v -3.5 2 -2.5
v -3.5 5 2.5
v -3.5 5 -2.5
v -3.5 8 2.5
v -3.5 8 -2.5
v -3.5 10 2.5
v -3.5 10 -2.5
v -2.5 0 1.5
v -2.5 0 -1.5
v -2.5 1 2.5
v -2.5 1 1.5
v -2.5 1 0.5
v -2.5 1 -1.5
v -2.5 1 -2.5
v -2.5 2 3.5
v -2.5 2 2.5
v -2.5 2 0.5
v -2.5 2 -1.5
v -2.5 2 -2.5
v -2.5 2 -3.5
v -2.5 5 3.5
v -2.5 5 2.5
v -2.5 5 -2.5
v -2.5 5 -3.5
v -2.5 8 3.5
v -2.5 8 2.5
v -2.5 8 -2.5
v -2.5 8 -3.5
v -2.5 10 3.5
v -2.5 10 2.5
v -2.5 10 -2.5
v -2.5 10 -3.5
v -1.5 0 2.5
v -1.5 0 1.5
v -1.5 0 -1.5
v -1.5 0 -2.5
v -1.5 1 3.5
v -1.5 1 2.5
v -1.5 1 1.5
v -1.5 1 -1.5
v -1.5 1 -2.5
v -1.5 1 -3.5
v -1.5 2 3.5
v -1.5 2 2.5
v -1.5 2 -2.5
v -1.5 2 -3.5
v 1.5 0 2.5
v 1.5 0 1.5
v 1.5 0 -1.5
v 1.5 0 -2.5
v 1.5 1 3.5
v 1.5 1 2.5
v 1.5 1 1.5
v 1.5 1 -1.5
v 1.5 1 -2.5
v 1.5 1 -3.5
v 1.5 2 3.5
v 1.5 2 2.5
v 1.5 2 -2.5
v 1.5 2 -3.5
v 2.5 0 1.5
v 2.5 0 -1.5
v 2.5 1 2.5
v 2.5 1 1.5
v 2.5 1 -1.5
v 2.5 1 -2.5
v 2.5 2 3.5
v 2.5 2 2.5
v 2.5 2 1.5
v 2.5 2 -1.5
v 2.5 2 -2.5
v 2.5 2 -3.5
v 2.5 5 3.5
v 2.5 5 2.5
v 2.5 5 -2.5
v 2.5 5 -3.5
v 2.5 8 3.5
v 2.5 8 2.5
v 2.5 8 -2.5
v 2.5 8 -3.5
v 2.5 10 3.5
v 2.5 10 2.5
v 2.5 10 -2.5
v 2.5 10 -3.5
v 3.5 1 1.5
v 3.5 1 -1.5
v 3.5 2 2.5
v 3.5 2 1.5
v 3.5 2 -1.5
v 3.5 2 -2.5
v 3.5 5 2.5
v 3.5 5 -2.5
v 3.5 8 2.5
v 3.5 8 -2.5
v 3.5 10 2.5
v 3.5 10 -2.5
v -2.5 2 3.5
v -2.5 5 3.5
v -2.5 8 3.5
v -2.5 10 3.5
v -1.5 1 3.5
v -1.5 2 3.5
v 1.5 1 3.5
v 1.5 2 3.5
v 2.5 2 3.5
v 2.5 5 3.5
v 2.5 8 3.5
v 2.5 10 3.5
v -3.5 2 2.5
v -3.5 5 2.5
v -3.5 8 2.5
v -3.5 10 2.5
v -2.5 1 2.5
v -2.5 2 2.5
v -2.5 5 2.5
v -2.5 8 2.5
v -2.5 10 2.5
v -1.5 0 2.5
v -1.5 1 2.5
v -1.5 2 2.5
v 1.5 0 2.5
v 1.5 1 2.5
v 1.5 2 2.5
v 2.5 1 2.5
v 2.5 2 2.5
v 2.5 5 2.5
v 2.5 8 2.5
v 2.5 10 2.5
v 3.5 2 2.5
v 3.5 5 2.5
v 3.5 8 2.5
v 3.5 10 2.5
v -2.5 0 1.5
v -2.5 1 1.5
v -1.5 0 1.5
v -1.5 1 1.5
v 1.5 0 1.5
v 1.5 1 1.5
v 2.5 0 1.5
v 2.5 1 1.5
v 2.5 2 1.5
v 3.5 1 1.5
v 3.5 2 1.5
v -3.5 1 0.5
v -3.5 2 0.5
v -2.5 1 0.5
v -2.5 2 0.5
v -3.5 1 -1.5
v -3.5 2 -1.5
v -2.5 0 -1.5
v -2.5 1 -1.5
v -2.5 2 -1.5
v -1.5 0 -1.5
v -1.5 1 -1.5
v 1.5 0 -1.5
v 1.5 1 -1.5
v 2.5 0 -1.5
v 2.5 1 -1.5
v 2.5 2 -1.5
v 3.5 1 -1.5
v 3.5 2 -1.5
v -3.5 2 -2.5
v -3.5 5 -2.5
v -3.5 8 -2.5
v -3.5 10 -2.5
v -2.5 1 -2.5
v -2.5 2 -2.5
v -2.5 5 -2.5
v -2.5 8 -2.5
v -2.5 10 -2.5
v -1.5 0 -2.5
v -1.5 1 -2.5
v -1.5 2 -2.5
v 1.5 0 -2.5
v 1.5 1 -2.5
v 1.5 2 -2.5
v 2.5 1 -2.5
v 2.5 2 -2.5
v 2.5 5 -2.5
v 2.5 8 -2.5
v 2.5 10 -2.5
v 3.5 2 -2.5
v 3.5 5 -2.5
v 3.5 8 -2.5
v 3.5 10 -2.5
v -2.5 2 -3.5
v -2.5 5 -3.5
v -2.5 8 -3.5
v -2.5 10 -3.5
v -1.5 1 -3.5
v -1.5 2 -3.5
v 1.5 1 -3.5
v 1.5 2 -3.5
v 2.5 2 -3.5
v 2.5 5 -3.5
v 2.5 8 -3.5
v 2.5 10 -3.5
v -1.5 0 2.5
v 1.5 0 2.5
v -2.5 0 1.5
v -1.5 0 1.5
v 1.5 0 1.5
v 2.5 0 1.5
v -2.5 0 -1.5
v -1.5 0 -1.5
v 1.5 0 -1.5
v 2.5 0 -1.5
v -1.5 0 -2.5
v 1.5 0 -2.5
v -1.5 1 3.5
v 1.5 1 3.5
v -2.5 1 2.5
v -1.5 1 2.5
v 1.5 1 2.5
v 2.5 1 2.5
v -2.5 1 1.5
v -1.5 1 1.5
v 1.5 1 1.5
v 2.5 1 1.5
v 3.5 1 1.5
v -3.5 1 0.5
v -2.5 1 0.5
v -3.5 1 -1.5
v -2.5 1 -1.5
v -1.5 1 -1.5
v 1.5 1 -1.5
v 2.5 1 -1.5
v 3.5 1 -1.5
v -2.5 1 -2.5
v -1.5 1 -2.5
v 1.5 1 -2.5
v 2.5 1 -2.5
v -1.5 1 -3.5
v 1.5 1 -3.5
v -2.5 2 3.5
v -1.5 2 3.5
v 1.5 2 3.5
v 2.5 2 3.5
v -3.5 2 2.5
v -2.5 2 2.5
v -1.5 2 2.5
v 1.5 2 2.5
v 2.5 2 2.5
v 3.5 2 2.5
v 2.5 2 1.5
v 3.5 2 1.5
v -3.5 2 0.5
v -2.5 2 0.5
v -3.5 2 -1.5
v -2.5 2 -1.5
v 2.5 2 -1.5
v 3.5 2 -1.5
v -3.5 2 -2.5
v -2.5 2 -2.5
v -1.5 2 -2.5
v 1.5 2 -2.5
v 2.5 2 -2.5
v 3.5 2 -2.5
v -2.5 2 -3.5
v -1.5 2 -3.5
v 1.5 2 -3.5
v 2.5 2 -3.5
v -2.5 10 3.5
v 2.5 10 3.5
v -3.5 10 2.5
v -2.5 10 2.5
v 2.5 10 2.5
v 3.5 10 2.5
v -3.5 10 -2.5
v -2.5 10 -2.5
v 2.5 10 -2.5
v 3.5 10 -2.5
v -2.5 10 -3.5
v 2.5 10 -3.5

# faces
f 4/2/1 2/2/1 1/2/1
f 5/2/1 2/2/1 4/2/1
f 7/2/1 4/2/1 3/2/1
f 7/2/1 6/2/1 5/2/1
f 7/2/1 5/2/1 4/2/1
f 8/2/1 6/2/1 7/2/1
f 9/3/1 8/3/1 7/3/1
f 10/3/1 8/3/1 9/3/1
f 11/4/1 10/4/1 9/4/1
f 12/4/1 10/4/1 11/4/1
f 16/2/1 14/2/1 13/2/1
f 17/2/1 14/2/1 16/2/1
f 18/2/1 14/2/1 17/2/1
f 21/2/1 16/2/1 15/2/1
f 21/2/1 17/2/1 16/2/1
f 22/2/1 17/2/1 21/2/1
f 23/2/1 19/2/1 18/2/1
f 24/2/1 19/2/1 23/2/1
f 26/2/1 21/2/1 20/2/1
f 27/2/1 21/2/1 26/2/1
f 28/2/1 25/2/1 24/2/1
f 29/2/1 25/2/1 28/2/1
f 30/3/1 27/3/1 26/3/1
f 31/3/1 27/3/1 30/3/1
f 32/3/1 29/3/1 28/3/1
f 33/3/1 29/3/1 32/3/1
f 34/4/1 31/4/1 30/4/1
f 35/4/1 31/4/1 34/4/1
f 36/4/1 33/4/1 32/4/1
f 37/4/1 33/4/1 36/4/1
f 43/2/1 39/2/1 38/2/1
f 44/2/1 39/2/1 43/2/1
f 45/2/1 41/2/1 40/2/1
f 46/2/1 41/2/1 45/2/1
f 48/2/1 43/2/1 42/2/1
f 49/2/1 43/2/1 48/2/1
f 50/2/1 47/2/1 46/2/1
f 51/2/1 47/2/1 50/2/1
f 52/2/2 53/2/2 57/2/2
f 57/2/2 53/2/2 58/2/2
f 54/2/2 55/2/2 59/2/2
f 59/2/2 55/2/2 60/2/2
f 56/2/2 57/2/2 62/2/2
f 62/2/2 57/2/2 63/2/2
f 60/2/2 61/2/2 64/2/2
f 64/2/2 61/2/2 65/2/2
f 66/2/2 67/2/2 69/2/2
f 69/2/2 67/2/2 70/2/2
f 68/2/2 69/2/2 73/2/2
f 73/2/2 69/2/2 74/2/2
f 70/2/2 71/2/2 75/2/2
f 75/2/2 71/2/2 76/2/2
f 72/2/2 73/2/2 78/2/2
f 78/2/2 73/2/2 79/2/2
f 76/2/2 77/2/2 80/2/2
f 80/2/2 77/2/2 81/2/2
f 78/3/2 79/3/2 82/3/2
f 82/3/2 79/3/2 83/3/2
f 80/3/2 81/3/2 84/3/2
f 84/3/2 81/3/2 85/3/2
f 82/4/2 83/4/2 86/4/2
f 86/4/2 83/4/2 87/4/2
f 84/4/2 85/4/2 88/4/2
f 88/4/2 85/4/2 89/4/2
f 90/2/2 91/2/2 93/2/2
f 93/2/2 91/2/2 94/2/2
f 92/2/2 93/2/2 96/2/2
f 94/2/2 95/2/2 96/2/2
f 93/2/2 94/2/2 96/2/2
f 96/2/2 95/2/2 97/2/2
f 96/3/2 97/3/2 98/3/2
f 98/3/2 97/3/2 99/3/2
f 98/4/2 99/4/2 100/4/2
f 100/4/2 99/4/2 101/4/2
f 107/2/3 103/2/3 102/2/3
f 108/2/3 107/2/3 106/2/3
f 109/2/3 103/2/3 107/2/3
f 109/2/3 107/2/3 108/2/3
f 110/2/3 103/2/3 109/2/3
f 111/3/3 104/3/3 103/3/3
f 111/2/3 103/2/3 110/2/3
f 112/4/3 105/4/3 104/4/3
f 112/3/3 104/3/3 111/3/3
f 113/4/3 105/4/3 112/4/3
f 119/2/3 115/2/3 114/2/3
f 120/3/3 116/3/3 115/3/3
f 120/2/3 115/2/3 119/2/3
f 121/4/3 117/4/3 116/4/3
f 121/3/3 116/3/3 120/3/3
f 122/4/3 117/4/3 121/4/3
f 124/2/3 119/2/3 118/2/3
f 125/2/3 119/2/3 124/2/3
f 126/2/3 124/2/3 123/2/3
f 127/2/3 124/2/3 126/2/3
f 129/2/3 128/2/3 127/2/3
f 130/2/3 128/2/3 129/2/3
f 134/2/3 131/2/3 130/2/3
f 135/3/3 132/3/3 131/3/3
f 135/2/3 131/2/3 134/2/3
f 136/4/3 133/4/3 132/4/3
f 136/3/3 132/3/3 135/3/3
f 137/4/3 133/4/3 136/4/3
f 140/2/3 139/2/3 138/2/3
f 141/2/3 139/2/3 140/2/3
f 144/2/3 143/2/3 142/2/3
f 145/2/3 143/2/3 144/2/3
f 147/2/3 146/2/3 145/2/3
f 148/2/3 146/2/3 147/2/3
f 151/2/3 150/2/3 149/2/3
f 152/2/3 150/2/3 151/2/3
f 153/2/4 154/2/4 156/2/4
f 156/2/4 154/2/4 157/2/4
f 155/2/4 156/2/4 158/2/4
f 158/2/4 156/2/4 159/2/4
f 160/2/4 161/2/4 162/2/4
f 162/2/4 161/2/4 163/2/4
f 163/2/4 164/2/4 165/2/4
f 165/2/4 164/2/4 166/2/4
f 167/2/4 168/2/4 172/2/4
f 168/3/4 169/3/4 173/3/4
f 172/2/4 168/2/4 173/2/4
f 169/4/4 170/4/4 174/4/4
f 173/3/4 169/3/4 174/3/4
f 174/4/4 170/4/4 175/4/4
f 171/2/4 172/2/4 177/2/4
f 177/2/4 172/2/4 178/2/4
f 176/2/4 177/2/4 179/2/4
f 179/2/4 177/2/4 180/2/4
f 180/2/4 181/2/4 182/2/4
f 182/2/4 181/2/4 183/2/4
f 183/2/4 184/2/4 187/2/4
f 184/3/4 185/3/4 188/3/4
f 187/2/4 184/2/4 188/2/4
f 185/4/4 186/4/4 189/4/4
f 188/3/4 185/3/4 189/3/4
f 189/4/4 186/4/4 190/4/4
f 191/2/4 192/2/4 196/2/4
f 195/2/4 196/2/4 197/2/4
f 196/2/4 192/2/4 198/2/4
f 197/2/4 196/2/4 198/2/4
f 198/2/4 192/2/4 199/2/4
f 192/3/4 193/3/4 200/3/4
f 199/2/4 192/2/4 200/2/4
f 193/4/4 194/4/4 201/4/4
f 200/3/4 193/3/4 201/3/4
f 201/4/4 194/4/4 202/4/4
f 206/2/5 204/2/5 203/2/5
f 207/2/5 204/2/5 206/2/5
f 209/2/5 206/2/5 205/2/5
f 209/2/5 208/2/5 207/2/5
f 209/2/5 207/2/5 206/2/5
f 210/2/5 208/2/5 209/2/5
f 211/2/5 208/2/5 210/2/5
f 212/2/5 208/2/5 211/2/5
f 213/2/5 211/2/5 210/2/5
f 214/2/5 211/2/5 213/2/5
f 218/2/5 216/2/5 215/2/5
f 219/2/5 216/2/5 218/2/5
f 221/2/5 218/2/5 217/2/5
f 222/2/5 218/2/5 221/2/5
f 223/2/5 220/2/5 219/2/5
f 224/2/5 220/2/5 223/2/5
f 228/2/5 227/2/5 226/2/5
f 229/2/5 227/2/5 228/2/5
f 232/2/5 225/2/5 224/2/5
f 233/2/5 225/2/5 232/2/5
f 234/2/5 230/2/5 229/2/5
f 235/2/5 230/2/5 234/2/5
f 236/2/5 232/2/5 231/2/5
f 237/2/5 232/2/5 236/2/5
f 238/2/5 236/2/5 235/2/5
f 239/2/5 236/2/5 238/2/5
f 245/2/5 241/2/5 240/2/5
f 246/2/5 241/2/5 245/2/5
f 247/2/5 243/2/5 242/2/5
f 248/2/5 243/2/5 247/2/5
f 250/2/5 249/2/5 248/2/5
f 251/2/5 249/2/5 250/2/5
f 252/2/5 245/2/5 244/2/5
f 253/2/5 245/2/5 252/2/5
f 258/2/5 255/2/5 254/2/5
f 259/2/5 255/2/5 258/2/5
f 262/2/5 257/2/5 256/2/5
f 263/2/5 257/2/5 262/2/5
f 264/2/5 260/2/5 259/2/5
f 265/2/5 260/2/5 264/2/5
f 266/2/5 262/2/5 261/2/5
f 267/2/5 262/2/5 266/2/5
f 268/4/6 269/4/6 271/4/6
f 271/4/6 269/4/6 272/4/6
f 270/4/6 271/4/6 274/4/6
f 272/4/6 273/4/6 274/4/6
f 271/4/6 272/4/6 274/4/6
f 274/4/6 273/4/6 275/4/6
f 275/4/6 273/4/6 276/4/6
f 276/4/6 273/4/6 277/4/6
f 275/4/6 276/4/6 278/4/6
f 278/4/6 276/4/6 279/4/6
